{"accessors" : [{"bufferView" : 0, "byteOffset" : 0, "componentType" : 5123, "count" : 3336, "type" : "SCALAR", "max" : [3335], "min" : [0]}, {"bufferView" : 1, "byteOffset" : 0, "componentType" : 5126, "count" : 3336, "type" : "VEC3", "max" : [83, 19, 64.38500213623047], "min" : [-62, -57.222999572753906, 0], "name" : "POSITION"}, {"bufferView" : 1, "byteOffset" : 12, "componentType" : 5126, "count" : 3336, "type" : "VEC3", "max" : [0.9803921580314636, 0.9803921580314636, 0.9803921580314636], "min" : [0.16862745583057404, 0.18039216101169586, 0.1921568661928177], "name" : "COLOR_0"}], "asset" : {"generator" : "Aspose.3D 21.11", "version" : "2.0"}, "buffers" : [{"uri" : "data:application/octet-stream;base64,", "byteLength" : 86744}], "bufferViews" : [{"buffer" : 0, "byteOffset" : 0, "byteLength" : 6672, "target" : 34963}, {"buffer" : 0, "byteOffset" : 6676, "byteLength" : 80064, "byteStride" : 24, "target" : 34962}], "materials" : [{"name" : "lambert2SG.001", "pbrMetallicRoughness" : {"baseColorFactor" : [1, 1, 1, 1], "metallicFactor" : 0.5, "roughnessFactor" : 0.5}, "emissiveFactor" : [0, 0, 0], "alphaMode" : "OPAQUE", "doubleSided" : false}], "meshes" : [{"primitives" : [{"attributes" : {"POSITION" : 1, "COLOR_0" : 2}, "indices" : 0, "material" : 0, "mode" : 4}]}], "nodes" : [{"mesh" : 0, "name" : "Mesh_Mesh_head_geo.001_lambert2SG.001"}, {"children" : [0], "matrix" : [1, 0, 0, 0, 0, 2.220446049250313E-16, -1, 0, 0, 1, 2.220446049250313E-16, 0, 0, 0, 0, 1], "name" : "Node #1"}], "scene" : 0, "scenes" : [{"nodes" : [1]}]}